# xmcd
#
# Track frame offsets: 
#        150
#        6738
#        30998
#        48624
#        70509
#        91609
#        114991
#        128776
#        150874
#        165285
#
# Disc length: 2327 seconds
#
# Revision: 4
# Processed by: cddbd v1.5.1PL0 Copyright (c) Steve Scherf et al.
# Submitted via: ExactAudioCopy v0.95a5
#
DISCID=6709150a
DTITLE=Looper - Up A Tree
DYEAR=1999
DGENRE=Electronic
TTITLE0=The Treehouse
TTITLE1=Impossible Things #2
TTITLE2=Burning Flies
TTITLE3=Festival '95
TTITLE4=Ballad Of Ray Suzuki
TTITLE5=Dave The Moon Man
TTITLE6=Quiet And Small
TTITLE7=Columbo's Car
TTITLE8=Up A Tree Again
TTITLE9=Back To The Treehouse
EXTD=
EXTT0=
EXTT1=
EXTT2=
EXTT3=
EXTT4=
EXTT5=
EXTT6=
EXTT7=
EXTT8=
EXTT9=
PLAYORDER=
